Coordinates
version=1
nRows=26
nColumns=24
inDegrees=yes

Units are S.I. units (second, meters, Newtons, ...)
Angles are in degrees.

endheader
time	pelvis_tilt	pelvis_list	pelvis_rotation	pelvis_tx	pelvis_ty	pelvis_tz	hip_flexion_r	hip_adduction_r	hip_rotation_r	knee_angle_r	ankle_angle_r	subtalar_angle_r	mtp_angle_r	hip_flexion_l	hip_adduction_l	hip_rotation_l	knee_angle_l	ankle_angle_l	subtalar_angle_l	mtp_angle_l	lumbar_extension	lumbar_bending	lumbar_rotation
      0.58400000	     -3.85330736	      2.88352942	      6.14526344	     -0.83414405	      0.99998466	      0.26418081	     28.70164195	     -1.61478223	     -7.57273230	      2.70815924	      3.93066519	     -0.78306889	      5.13850274	    -12.74863623	      7.15329924	      9.06839976	     -6.23272301	     14.60928856	     -6.41741756	     -4.55003196	     -2.73411057	     -6.55777464	     -7.45392302
      0.58816667	     -3.80172009	      2.71331392	      6.14496497	     -0.82804408	      0.99938115	      0.26416184	     28.80066717	     -1.37236317	     -7.43580403	      1.78029922	      4.08443577	     -1.08467335	      5.15091303	    -12.98857484	      6.95476215	      9.02220010	     -6.57092100	     14.67150731	     -6.44171697	     -4.55150492	     -2.70952563	     -6.33534202	     -7.47044738
      0.59233333	     -3.75289817	      2.55375013	      6.12314259	     -0.82186914	      0.99876618	      0.26419727	     28.86934401	     -1.12173319	     -7.11658272	      0.89263192	      4.10897829	     -1.65587607	      5.20298015	    -13.18691112	      6.76090941	      8.73271811	     -7.00102932	     14.87393522	     -6.03017905	     -4.54961248	     -2.64872888	     -6.11983205	     -7.47458994
      0.59650000	     -3.69125665	      2.37331317	      6.12713931	     -0.81562199	      0.99822332	      0.26417344	     28.92649170	     -0.86743180	     -6.94783987	     -0.03577379	      4.19166491	     -2.00196003	      5.22333103	    -13.42930347	      6.54967927	      8.65805893	     -7.36878297	     14.91892399	     -6.00911597	     -4.54619003	     -2.58376248	     -5.85385083	     -7.49232809
      0.60066667	     -3.63760596	      2.19645889	      6.11147358	     -0.80933156	      0.99767301	      0.26424544	     28.94717619	     -0.58849762	     -6.55809460	     -0.86805346	      4.00036317	     -2.77060904	      5.28764699	    -13.62683438	      6.33248599	      8.37742457	     -7.81189139	     15.06069898	     -5.62578539	     -4.51535142	     -2.53991750	     -5.63723701	     -7.50800895
      0.60483333	     -3.57777470	      2.00853520	      6.10796406	     -0.80296588	      0.99717282	      0.26430111	     28.95166502	     -0.30337248	     -6.23920747	     -1.69514243	      3.82027949	     -3.42648455	      5.35916057	    -13.83964593	      6.10318430	      8.16893696	     -8.23733275	     15.12720639	     -5.37496903	     -4.47169880	     -2.47662349	     -5.39025779	     -7.52858060
      0.60900000	     -3.50954287	      1.81943575	      6.10851744	     -0.79654975	      0.99671372	      0.26437036	     28.92543032	     -0.01186699	     -5.89535420	     -2.47779523	      3.54614381	     -4.14907193	      5.43923126	    -14.05532599	      5.87019869	      7.97093268	     -8.67717826	     15.15216653	     -5.16223439	     -4.41068988	     -2.41701133	     -5.14300289	     -7.55369015
      0.61316667	     -3.46549305	      1.62613943	      6.11866627	     -0.79008288	      0.99625889	      0.26445217	     28.90410032	      0.28407358	     -5.54036241	     -3.21138806	      3.17211123	     -4.92774810	      5.52691056	    -14.23271183	      5.63036814	      7.76089567	     -9.14596857	     15.16284542	     -4.92674965	     -4.33196015	     -2.32039082	     -4.89876799	     -7.59026486
      0.61733333	     -3.41009180	      1.43417733	      6.12894822	     -0.78356783	      0.99585994	      0.26456367	     28.85051414	      0.58622638	     -5.17040848	     -3.89369515	      2.70658201	     -5.75163525	      5.62657180	    -14.41568852	      5.38759056	      7.55407251	     -9.62197327	     15.12830750	     -4.69841425	     -4.22908034	     -2.23290938	     -4.65493150	     -7.62444918
      0.62150000	     -3.35318020	      1.23203703	      6.14422454	     -0.77699563	      0.99549572	      0.26468754	     28.77393259	      0.90133935	     -4.80360012	     -4.52021289	      2.14853376	     -6.60854585	      5.74105408	    -14.59268906	      5.13000548	      7.34907547	    -10.11647542	     15.06666171	     -4.46677130	     -4.10112548	     -2.13981104	     -4.40240778	     -7.66383749
      0.62566667	     -3.30915215	      1.03222433	      6.16806545	     -0.77038378	      0.99515747	      0.26482476	     28.69482672	      1.21316282	     -4.44184541	     -5.10047323	      1.50011173	     -7.49093165	      5.86648239	    -14.74307615	      4.87002227	      7.13364627	    -10.63065255	     14.97053503	     -4.22677598	     -3.94952214	     -2.02046235	     -4.15637530	     -7.70902653
      0.62983333	     -3.27054398	      0.82617056	      6.19999958	     -0.76372490	      0.99485671	      0.26496429	     28.60570573	      1.52829208	     -4.10118703	     -5.63705225	      0.77667727	     -8.36888338	      6.00770309	    -14.86981819	      4.59945692	      6.91538682	    -11.17834484	     14.84300145	     -3.97887339	     -3.76876015	     -1.89001622	     -3.91010847	     -7.75699971
      0.63400000	     -3.24220244	      0.61910992	      6.23852752	     -0.75702773	      0.99458481	      0.26512502	     28.51373731	      1.84312094	     -3.77861789	     -6.13225436	     -0.01942326	     -9.25017383	      6.16297003	    -14.97700331	      4.32344454	      6.71433255	    -11.74023741	     14.67340837	     -3.73845378	     -3.55820755	     -1.74237252	     -3.66267455	     -7.81087738
      0.63816667	     -3.21053939	      0.41341582	      6.28278894	     -0.75030328	      0.99436358	      0.26529754	     28.40781834	      2.15394945	     -3.47680571	     -6.59743620	     -0.86185314	    -10.10826680	      6.33777589	    -15.06116793	      4.04176574	      6.48367541	    -12.34491594	     14.47593635	     -3.46607875	     -3.30617981	     -1.59519367	     -3.42202360	     -7.86580664
      0.64233333	     -3.17752670	      0.20354866	      6.33264034	     -0.74354652	      0.99418518	      0.26547527	     28.29273953	      2.46429548	     -3.21552723	     -7.03863583	     -1.73359141	    -10.92234119	      6.51557391	    -15.14139030	      3.75146472	      6.27900213	    -12.95859292	     14.22346228	     -3.21828279	     -3.03203828	     -1.44132227	     -3.17269589	     -7.91904491
      0.64650000	     -3.18249426	     -0.00002343	      6.38431522	     -0.73677243	      0.99398688	      0.26567572	     28.22763892	      2.75702328	     -3.01035864	     -7.49427991	     -2.60504404	    -11.61016972	      8.68158989	    -15.13042622	      3.45456522	      5.94819854	    -13.65478044	     13.89950142	     -2.80443067	      0.32039911	     -1.23306264	     -2.94815386	     -7.96298889
      0.65066667	     -3.13925579	     -0.21063825	      6.45762460	     -0.72997886	      0.99393954	      0.26583886	     28.08473589	      3.05250977	     -2.81561802	     -7.89542263	     -3.50367119	    -12.36333577	      8.68270430	    -15.18945141	      3.15669508	      5.82886608	    -14.31358255	     13.51799909	     -2.69919076	      0.40067925	     -1.09610312	     -2.70098335	     -8.03892269
      0.65483333	     -3.11754477	     -0.41681920	      6.52595844	     -0.72317480	      0.99389455	      0.26603887	     27.97292088	      3.34058322	     -2.64571711	     -8.31688824	     -4.34625626	    -13.04097116	      8.70770126	    -15.18550969	      2.85221829	      5.60485897	    -15.03992522	     13.15166540	     -2.41569183	      0.54877694	     -0.92149502	     -2.47154837	     -8.09637112
      0.65900000	     -3.10534597	     -0.62662650	      6.60225993	     -0.71635719	      0.99389047	      0.26623525	     27.87236040	      3.62168591	     -2.51820463	     -8.74562565	     -5.13951505	    -13.64663751	      8.74733603	    -15.14187031	      2.53724343	      5.37385128	    -15.81288164	     12.73281675	     -2.12131483	      0.75796928	     -0.73126358	     -2.23876389	     -8.15791133
      0.66316667	     -3.07253844	     -0.83582390	      6.67612311	     -0.70954316	      0.99395006	      0.26645589	     27.75473116	      3.90256491	     -2.41235949	     -9.18860704	     -5.87543222	    -14.20837660	      8.80305932	    -15.09707903	      2.21249616	      5.11739982	    -16.62029740	     12.27663991	     -1.78714620	      1.05010058	     -0.56665968	     -2.00766061	     -8.21165071
      0.66733333	     -3.05490352	     -1.04308773	      6.75460453	     -0.70272629	      0.99404670	      0.26667215	     27.66335490	      4.17012580	     -2.35474698	     -9.66427252	     -6.52398164	    -14.68493925	      8.86449101	    -15.00427444	      1.88528365	      4.85646193	    -17.47060257	     11.77185438	     -1.45894513	      1.41017352	     -0.37968616	     -1.78057128	     -8.26670695
      0.67150000	     -3.01721447	     -1.25388286	      6.83414700	     -0.69592054	      0.99421098	      0.26690373	     27.55564039	      4.43954180	     -2.32097027	    -10.15790001	     -7.09604544	    -15.12715530	      8.93803659	    -14.90570632	      1.54043702	      4.56059826	    -18.36071560	     11.22598218	     -1.07546267	      1.89967681	     -0.21851507	     -1.55103470	     -8.32061461
      0.67566667	     -2.95568291	     -1.45890667	      6.91890495	     -0.68912660	      0.99446674	      0.26711741	     27.43637576	      4.69059501	     -2.36876371	    -10.69451348	     -7.52801310	    -15.36445033	      9.62572455	    -14.81835755	      1.19473147	      4.29951590	    -19.24045882	     10.43853303	     -0.79689657	      7.19042967	     -0.09423803	     -1.32539404	     -8.31574408
      0.67983333	     -2.92152697	     -1.65507499	      6.98967260	     -0.68235174	      0.99472937	      0.26735602	     27.35324127	      4.93452037	     -2.38118686	    -11.26443681	     -7.81153689	    -15.54358837	      9.61469739	    -14.67375306	      0.86866880	      4.06679333	    -20.17417679	      9.68954742	     -0.56285147	      7.22831759	      0.06233372	     -1.10584243	     -8.36129884
      0.68400000	     -2.86948579	     -1.86251585	      7.06139452	     -0.67560101	      0.99502232	      0.26764457	     27.26365581	      5.19352951	     -2.42306316	    -11.86169825	     -8.08759358	    -15.85572057	      9.59042081	    -14.49103156	      0.49672128	      3.68947495	    -21.20822191	      9.05841071	     -0.08473006	      7.40741756	      0.20572415	     -0.88740337	     -8.41383763
      0.68816667	     -2.80039460	     -2.06088458	      7.14409424	     -0.66888245	      0.99540427	      0.26791855	     27.15528659	      5.43511967	     -2.49243552	    -12.47486560	     -8.21109853	    -16.02898232	      9.54464685	    -14.30910622	      0.12796681	      3.37346319	    -22.24548464	      8.28328994	      0.37595573	      7.80747907	      0.31509865	     -0.67010250	     -8.43335334
